<svg width="36" height="36" viewBox="0 0 36 36" fill="none" xmlns="http://www.w3.org/2000/svg">
<path d="M13.8325 33C16.1325 35.2217 19.8658 35.2217 22.1658 33M26.3325 21.0083C26.3325 20.4317 26.3325 20.1433 26.4191 19.8867C26.6708 19.14 27.3358 18.8517 28.0025 18.5483C28.7491 18.2067 29.1225 18.0367 29.4941 18.0067C29.9141 17.9733 30.3358 18.0633 30.6958 18.265C31.1725 18.5317 31.5058 19.0417 31.8458 19.455C33.4175 21.365 34.2041 22.32 34.4908 23.3717C34.7241 24.2217 34.7241 25.1117 34.4908 25.96C34.0725 27.4967 32.7475 28.7833 31.7658 29.9767C31.2641 30.585 31.0125 30.89 30.6958 31.0683C30.3296 31.2714 29.9114 31.3613 29.4941 31.3267C29.1225 31.2967 28.7491 31.1267 28.0008 30.785C27.3341 30.4817 26.6708 30.1933 26.4191 29.4467C26.3325 29.19 26.3325 28.9017 26.3325 28.3267V21.0083ZM9.6658 21.0083C9.6658 20.2817 9.6458 19.63 9.05913 19.12C8.8458 18.935 8.56246 18.8067 7.99746 18.5483C7.24913 18.2083 6.8758 18.0367 6.50413 18.0067C5.39246 17.9167 4.79413 18.6767 4.15413 19.4567C2.5808 21.365 1.79413 22.32 1.5058 23.3733C1.27411 24.22 1.27411 25.1133 1.5058 25.96C1.9258 27.4967 3.25246 28.7833 4.23246 29.9767C4.8508 30.7267 5.44246 31.4117 6.50413 31.3267C6.8758 31.2967 7.24913 31.1267 7.99746 30.785C8.56413 30.5267 8.8458 30.3983 9.05913 30.2133C9.6458 29.7033 9.6658 29.0517 9.6658 28.325V21.0083Z" stroke="#FCFDFE" stroke-width="2.5" stroke-linecap="round" stroke-linejoin="round"/>
<path d="M1.33203 24.6666V17.9999C1.33203 8.79492 8.7937 1.33325 17.9987 1.33325C27.2037 1.33325 34.6654 8.79492 34.6654 17.9999V24.6666" stroke="#FCFDFE" stroke-width="2.5" stroke-linecap="round" stroke-linejoin="round"/>
</svg>
