<svg width="34" height="36" viewBox="0 0 34 36" fill="none" xmlns="http://www.w3.org/2000/svg">
<path d="M16.9977 1.33325C12.2477 1.33325 9.16939 4.69825 5.52772 5.92492C4.04772 6.42492 3.30606 6.67325 3.00772 7.02492C2.70772 7.37492 2.61939 7.88992 2.44439 8.91659C0.566056 19.9099 4.67106 30.0733 14.4594 34.0299C15.5111 34.4549 16.0377 34.6666 17.0027 34.6666C17.9677 34.6666 18.4961 34.4533 19.5477 34.0283C29.3361 30.0733 33.4361 19.9099 31.5577 8.91659C31.3811 7.88992 31.2944 7.37492 30.9944 7.02325C30.6944 6.67159 29.9544 6.42325 28.4744 5.92492C24.8311 4.69825 21.7477 1.33325 16.9977 1.33325Z" stroke="#FCFDFE" stroke-width="2.5" stroke-linecap="round" stroke-linejoin="round"/>
<path d="M10.5502 16.5518L17.2152 8.31842C17.7369 7.67342 18.7136 8.07508 18.7136 8.93175V15.3051C18.7136 15.8201 19.0969 16.2368 19.5702 16.2368H22.8102C23.5469 16.2368 23.9402 17.1801 23.4536 17.7818L16.7886 26.0151C16.2669 26.6601 15.2902 26.2584 15.2902 25.4017V19.0284C15.2902 18.5134 14.9069 18.0968 14.4336 18.0968H11.1936C10.4586 18.0968 10.0652 17.1534 10.5519 16.5518" stroke="#FCFDFE" stroke-width="2.5" stroke-linecap="round" stroke-linejoin="round"/>
</svg>
