<svg width="35" height="35" viewBox="0 0 35 35" fill="none" xmlns="http://www.w3.org/2000/svg">
<path d="M12.9987 14.6666C16.6806 14.6666 19.6654 11.6818 19.6654 7.99992C19.6654 4.31802 16.6806 1.33325 12.9987 1.33325C9.3168 1.33325 6.33203 4.31802 6.33203 7.99992C6.33203 11.6818 9.3168 14.6666 12.9987 14.6666Z" stroke="#FCFDFE" stroke-width="2.5"/>
<path d="M23 12.9999C24.3261 12.9999 25.5979 12.4731 26.5355 11.5354C27.4732 10.5977 28 9.32596 28 7.99988C28 6.6738 27.4732 5.40203 26.5355 4.46434C25.5979 3.52666 24.3261 2.99988 23 2.99988" stroke="#FCFDFE" stroke-width="2.5" stroke-linecap="round"/>
<path d="M12.9987 32.9999C19.442 32.9999 24.6654 30.0152 24.6654 26.3333C24.6654 22.6514 19.442 19.6666 12.9987 19.6666C6.55538 19.6666 1.33203 22.6514 1.33203 26.3333C1.33203 30.0152 6.55538 32.9999 12.9987 32.9999Z" stroke="#FCFDFE" stroke-width="2.5"/>
<path d="M28 21.3333C30.9233 21.9749 33 23.5983 33 25.4999C33 27.2166 31.31 28.7049 28.8333 29.4499" stroke="#FCFDFE" stroke-width="2.5" stroke-linecap="round"/>
</svg>
