<svg width="36" height="36" viewBox="0 0 36 36" fill="none" xmlns="http://www.w3.org/2000/svg">
<path d="M16.1028 3.60492C16.9478 2.08992 17.3695 1.33325 18.0011 1.33325C18.6328 1.33325 19.0545 2.08992 19.8995 3.60492L20.1161 3.99659C20.3578 4.42825 20.4778 4.64325 20.6645 4.78492C20.8511 4.92659 21.0845 4.97992 21.5511 5.08492L21.9745 5.18158C23.6145 5.55158 24.4345 5.73825 24.6295 6.36492C24.8245 6.99158 24.2661 7.64658 23.1478 8.95325L22.8578 9.29158C22.5411 9.66325 22.3828 9.84825 22.3111 10.0783C22.2395 10.3083 22.2628 10.5566 22.3111 11.0516L22.3545 11.5016C22.5245 13.2466 22.6078 14.1183 22.0978 14.5066C21.5878 14.8949 20.8195 14.5399 19.2845 13.8333L18.8861 13.6499C18.4511 13.4499 18.2328 13.3499 18.0011 13.3499C17.7695 13.3499 17.5511 13.4499 17.1161 13.6499L16.7178 13.8333C15.1845 14.5416 14.4145 14.8949 13.9045 14.5066C13.3945 14.1183 13.4778 13.2466 13.6478 11.5033L13.6911 11.0516C13.7395 10.5566 13.7628 10.3083 13.6911 10.0783C13.6195 9.84825 13.4611 9.66158 13.1445 9.29158L12.8545 8.95325C11.7378 7.64658 11.1778 6.99158 11.3728 6.36492C11.5678 5.73825 12.3878 5.55158 14.0278 5.18158L14.4511 5.08492C14.9178 4.97992 15.1511 4.92659 15.3378 4.78492C15.5245 4.64325 15.6445 4.42825 15.8845 3.99659L16.1028 3.60492ZM30.3845 10.8033C30.8078 10.0449 31.0178 9.66658 31.3345 9.66658C31.6511 9.66658 31.8611 10.0449 32.2845 10.8033L32.3928 10.9983C32.5128 11.2149 32.5728 11.3216 32.6661 11.3933C32.7595 11.4633 32.8761 11.4899 33.1095 11.5433L33.3211 11.5899C34.1411 11.7766 34.5511 11.8683 34.6478 12.1833C34.7461 12.4966 34.4661 12.8233 33.9078 13.4766L33.7628 13.6449C33.6045 13.8316 33.5245 13.9249 33.4895 14.0399C33.4528 14.1533 33.4661 14.2783 33.4895 14.5266L33.5111 14.7516C33.5945 15.6232 33.6378 16.0599 33.3828 16.2532C33.1278 16.4466 32.7445 16.2699 31.9761 15.9166L31.7761 15.8249C31.5595 15.7249 31.4495 15.6749 31.3345 15.6749C31.2178 15.6749 31.1095 15.7249 30.8911 15.8249L30.6928 15.9166C29.9261 16.2699 29.5428 16.4466 29.2861 16.2532C29.0311 16.0599 29.0728 15.6232 29.1578 14.7516L29.1795 14.5266C29.2028 14.2766 29.2161 14.1533 29.1795 14.0399C29.1445 13.9233 29.0645 13.8316 28.9061 13.6449L28.7611 13.4766C28.2028 12.8233 27.9228 12.4966 28.0211 12.1833C28.1178 11.8683 28.5278 11.7766 29.3478 11.5899L29.5595 11.5433C29.7928 11.4899 29.9095 11.4633 30.0028 11.3933C30.0961 11.3216 30.1561 11.2133 30.2761 10.9983L30.3845 10.8033ZM3.7178 10.8033C4.1428 10.0449 4.35114 9.66658 4.6678 9.66658C4.98447 9.66658 5.19447 10.0449 5.6178 10.8033L5.72614 10.9983C5.84614 11.2149 5.90614 11.3216 5.99947 11.3933C6.0928 11.4633 6.20947 11.4899 6.4428 11.5433L6.65447 11.5899C7.47447 11.7766 7.88447 11.8683 7.9828 12.1833C8.07947 12.4966 7.79947 12.8233 7.24114 13.4766L7.09614 13.6449C6.9378 13.8316 6.8578 13.9249 6.8228 14.0399C6.78614 14.1533 6.79947 14.2783 6.8228 14.5266L6.84447 14.7516C6.9278 15.6232 6.97114 16.0599 6.71614 16.2532C6.46114 16.4466 6.07614 16.2699 5.30947 15.9166L5.10947 15.8249C4.8928 15.7249 4.7828 15.6749 4.6678 15.6749C4.55114 15.6749 4.4428 15.7249 4.22447 15.8249L4.02614 15.9166C3.25947 16.2699 2.87614 16.4466 2.61947 16.2532C2.36447 16.0599 2.40614 15.6232 2.49114 14.7516L2.5128 14.5266C2.53614 14.2766 2.54947 14.1533 2.5128 14.0399C2.4778 13.9233 2.3978 13.8316 2.23947 13.6449L2.09447 13.4766C1.53614 12.8233 1.25614 12.4966 1.3528 12.1833C1.45114 11.8683 1.86114 11.7766 2.68114 11.5899L2.8928 11.5433C3.12614 11.4899 3.2428 11.4633 3.33614 11.3933C3.42947 11.3216 3.48947 11.2133 3.60947 10.9983L3.7178 10.8033Z" stroke="#FCFDFE" stroke-width="2.5"/>
<path d="M6.33398 31.9799H10.1007C11.784 31.9799 13.489 32.1565 15.1273 32.4932C18.0523 33.0941 21.0619 33.1607 24.0107 32.6899C25.4573 32.4565 26.8773 32.0982 28.164 31.4782C29.324 30.9165 30.7456 30.1282 31.7006 29.2432C32.654 28.3599 33.6473 26.9149 34.3506 25.7849C34.9573 24.8149 34.664 23.6265 33.7073 22.9049C33.1697 22.5138 32.5221 22.3032 31.8573 22.3032C31.1926 22.3032 30.5449 22.5138 30.0073 22.9049L26.9956 25.1799C25.829 26.0632 24.554 26.8749 23.0357 27.1165C22.8523 27.1449 22.6607 27.1715 22.4607 27.1949M22.4607 27.1949C22.3996 27.2019 22.3385 27.2086 22.2773 27.2149M22.4607 27.1949C22.7274 27.1227 22.972 26.9853 23.1723 26.7949C23.4235 26.5776 23.6285 26.3122 23.7755 26.0144C23.9224 25.7166 24.0082 25.3924 24.0277 25.0608C24.0473 24.7293 24.0003 24.3973 23.8894 24.0842C23.7786 23.7712 23.6062 23.4835 23.3823 23.2382C23.1651 22.9971 22.9122 22.7908 22.6323 22.6265C17.9707 19.8449 10.7157 21.9632 6.33398 25.0715M22.4607 27.1949C22.4004 27.208 22.339 27.2147 22.2773 27.2149M22.2773 27.2149C21.2722 27.3159 20.2596 27.3181 19.254 27.2215" stroke="#FCFDFE" stroke-width="2.5" stroke-linecap="round"/>
<path d="M6.33398 23.8333C6.33398 22.4525 5.2147 21.3333 3.83398 21.3333C2.45327 21.3333 1.33398 22.4525 1.33398 23.8333V32.1666C1.33398 33.5473 2.45327 34.6666 3.83398 34.6666C5.2147 34.6666 6.33398 33.5473 6.33398 32.1666V23.8333Z" stroke="#FCFDFE" stroke-width="2.5"/>
</svg>
