<svg width="203" height="40" viewBox="0 0 203 40" fill="none" xmlns="http://www.w3.org/2000/svg">
<path d="M62.2776 32.3059L58.2305 24.9602H57.094V32.3059H52.3539V12.8467H60.3095C61.8433 12.8467 63.1461 13.1147 64.2179 13.6506C65.3082 14.1865 66.1214 14.9257 66.6573 15.8682C67.1932 16.7921 67.4611 17.827 67.4611 18.9728C67.4611 20.2663 67.0915 21.4213 66.3524 22.4377C65.6316 23.4541 64.5598 24.1748 63.1369 24.5998L67.6275 32.3059H62.2776ZM57.094 21.6061H60.0323C60.9008 21.6061 61.5476 21.3936 61.9726 20.9686C62.4162 20.5435 62.6379 19.9429 62.6379 19.1668C62.6379 18.4276 62.4162 17.8455 61.9726 17.4205C61.5476 16.9954 60.9008 16.7829 60.0323 16.7829H57.094V21.6061ZM84.1856 24.3227C84.1856 24.7662 84.1579 25.2282 84.1025 25.7086H73.375C73.4489 26.6696 73.7538 27.4088 74.2897 27.9262C74.8441 28.4252 75.5186 28.6746 76.3132 28.6746C77.4959 28.6746 78.3183 28.1757 78.7803 27.1778H83.8253C83.5665 28.1942 83.0953 29.1089 82.4116 29.922C81.7463 30.7351 80.9055 31.3727 79.8891 31.8347C78.8727 32.2967 77.7362 32.5277 76.4796 32.5277C74.9642 32.5277 73.6152 32.2043 72.4325 31.5575C71.2498 30.9107 70.3258 29.9867 69.6605 28.7855C68.9952 27.5843 68.6626 26.1799 68.6626 24.5721C68.6626 22.9644 68.986 21.5599 69.6328 20.3587C70.2981 19.1576 71.2221 18.2336 72.4048 17.5868C73.5875 16.94 74.9457 16.6166 76.4796 16.6166C77.9764 16.6166 79.307 16.9307 80.4712 17.5591C81.6354 18.1874 82.5409 19.0836 83.1877 20.2479C83.853 21.4121 84.1856 22.7704 84.1856 24.3227ZM79.3347 23.0753C79.3347 22.2622 79.0575 21.6154 78.5031 21.1349C77.9487 20.6544 77.2557 20.4142 76.4241 20.4142C75.6295 20.4142 74.955 20.6452 74.4006 21.1072C73.8647 21.5692 73.532 22.2252 73.4027 23.0753H79.3347ZM95.2793 16.672C97.0903 16.672 98.5318 17.2634 99.6036 18.4461C100.694 19.6103 101.239 21.2181 101.239 23.2693V32.3059H96.5267V23.9069C96.5267 22.872 96.2587 22.0681 95.7228 21.4952C95.1869 20.9224 94.4662 20.6359 93.5607 20.6359C92.6552 20.6359 91.9345 20.9224 91.3986 21.4952C90.8627 22.0681 90.5947 22.872 90.5947 23.9069V32.3059H85.8546V16.8383H90.5947V18.8896C91.0752 18.2058 91.722 17.6699 92.5351 17.2819C93.3482 16.8753 94.2629 16.672 95.2793 16.672ZM112.322 28.2866V32.3059H109.911C108.192 32.3059 106.852 31.8901 105.891 31.0585C104.93 30.2085 104.45 28.8317 104.45 26.9283V20.7745H102.565V16.8383H104.45V13.0685H109.19V16.8383H112.294V20.7745H109.19V26.9837C109.19 27.4457 109.301 27.7784 109.522 27.9816C109.744 28.1849 110.114 28.2866 110.631 28.2866H112.322ZM130.984 12.8467V32.3059H126.244V24.2949H118.871V32.3059H114.131V12.8467H118.871V20.4696H126.244V12.8467H130.984ZM140.615 32.5277C139.1 32.5277 137.733 32.2043 136.513 31.5575C135.312 30.9107 134.36 29.9867 133.658 28.7855C132.974 27.5843 132.632 26.1799 132.632 24.5721C132.632 22.9829 132.983 21.5876 133.686 20.3865C134.388 19.1668 135.349 18.2336 136.568 17.5868C137.788 16.94 139.156 16.6166 140.671 16.6166C142.186 16.6166 143.554 16.94 144.773 17.5868C145.993 18.2336 146.954 19.1668 147.656 20.3865C148.358 21.5876 148.71 22.9829 148.71 24.5721C148.71 26.1614 148.349 27.5658 147.629 28.7855C146.926 29.9867 145.956 30.9107 144.718 31.5575C143.498 32.2043 142.131 32.5277 140.615 32.5277ZM140.615 28.4252C141.521 28.4252 142.288 28.0925 142.916 27.4273C143.563 26.762 143.886 25.8103 143.886 24.5721C143.886 23.334 143.572 22.3823 142.944 21.717C142.334 21.0517 141.576 20.7191 140.671 20.7191C139.747 20.7191 138.98 21.0517 138.37 21.717C137.76 22.3638 137.455 23.3155 137.455 24.5721C137.455 25.8103 137.751 26.762 138.342 27.4273C138.952 28.0925 139.71 28.4252 140.615 28.4252ZM165.666 16.8383V32.3059H160.926V30.1992C160.446 30.883 159.79 31.4374 158.958 31.8624C158.145 32.2689 157.239 32.4722 156.242 32.4722C155.059 32.4722 154.015 32.2135 153.109 31.6961C152.204 31.1602 151.501 30.3933 151.003 29.3953C150.504 28.3974 150.254 27.224 150.254 25.875V16.8383H154.966V25.2374C154.966 26.2723 155.234 27.0761 155.77 27.649C156.306 28.2219 157.027 28.5083 157.932 28.5083C158.856 28.5083 159.586 28.2219 160.122 27.649C160.658 27.0761 160.926 26.2723 160.926 25.2374V16.8383H165.666ZM174.532 32.5277C173.183 32.5277 171.982 32.2967 170.928 31.8347C169.875 31.3727 169.043 30.7444 168.433 29.9497C167.824 29.1366 167.482 28.2311 167.408 27.2332H172.092C172.148 27.7691 172.397 28.2034 172.841 28.536C173.284 28.8687 173.829 29.035 174.476 29.035C175.068 29.035 175.52 28.9241 175.835 28.7024C176.167 28.4621 176.333 28.1572 176.333 27.7876C176.333 27.3441 176.103 27.0207 175.641 26.8174C175.179 26.5957 174.43 26.3554 173.395 26.0967C172.286 25.838 171.362 25.57 170.623 25.2928C169.884 24.9972 169.247 24.5444 168.711 23.9346C168.175 23.3063 167.907 22.4654 167.907 21.4121C167.907 20.5251 168.147 19.7212 168.627 19.0005C169.126 18.2613 169.847 17.6792 170.79 17.2541C171.751 16.8291 172.887 16.6166 174.199 16.6166C176.139 16.6166 177.664 17.0971 178.773 18.058C179.9 19.019 180.547 20.2941 180.713 21.8833H176.333C176.26 21.3474 176.019 20.9224 175.613 20.6082C175.225 20.2941 174.707 20.137 174.06 20.137C173.506 20.137 173.081 20.2479 172.785 20.4696C172.49 20.6729 172.342 20.9593 172.342 21.3289C172.342 21.7724 172.573 22.1051 173.035 22.3268C173.515 22.5486 174.255 22.7704 175.252 22.9921C176.398 23.2878 177.331 23.5835 178.052 23.8791C178.773 24.1563 179.401 24.6183 179.937 25.2651C180.491 25.8934 180.778 26.7435 180.796 27.8153C180.796 28.7208 180.538 29.5339 180.02 30.2547C179.521 30.9569 178.791 31.5113 177.83 31.9178C176.888 32.3244 175.788 32.5277 174.532 32.5277ZM197.445 24.3227C197.445 24.7662 197.418 25.2282 197.362 25.7086H186.635C186.709 26.6696 187.013 27.4088 187.549 27.9262C188.104 28.4252 188.778 28.6746 189.573 28.6746C190.756 28.6746 191.578 28.1757 192.04 27.1778H197.085C196.826 28.1942 196.355 29.1089 195.671 29.922C195.006 30.7351 194.165 31.3727 193.149 31.8347C192.132 32.2967 190.996 32.5277 189.739 32.5277C188.224 32.5277 186.875 32.2043 185.692 31.5575C184.509 30.9107 183.585 29.9867 182.92 28.7855C182.255 27.5843 181.922 26.1799 181.922 24.5721C181.922 22.9644 182.246 21.5599 182.892 20.3587C183.558 19.1576 184.482 18.2336 185.664 17.5868C186.847 16.94 188.205 16.6166 189.739 16.6166C191.236 16.6166 192.567 16.9307 193.731 17.5591C194.895 18.1874 195.801 19.0836 196.447 20.2479C197.113 21.4121 197.445 22.7704 197.445 24.3227ZM192.594 23.0753C192.594 22.2622 192.317 21.6154 191.763 21.1349C191.208 20.6544 190.515 20.4142 189.684 20.4142C188.889 20.4142 188.215 20.6452 187.66 21.1072C187.124 21.5692 186.792 22.2252 186.662 23.0753H192.594Z" fill="#FBFCFF"/>
<circle cx="199.717" cy="12.7094" r="3.02602" fill="#2E62FF"/>
<path d="M0.131585 19.2266L20.9816 0.106106C21.1364 -0.0358528 21.3742 -0.0353028 21.5283 0.107369L42.1862 19.2279C42.4555 19.4772 42.2791 19.9274 41.9121 19.9274H37.0917C36.8689 19.9274 36.6882 20.1081 36.6882 20.3309V36.4021C36.6882 36.5793 36.4762 36.6704 36.3476 36.5485L29.5351 30.0857C29.255 29.8199 29.206 29.3947 29.3883 29.0543C30.0559 27.8076 30.4345 26.383 30.4345 24.8699C30.4345 19.9677 26.4604 15.9936 21.5581 15.9936C16.6559 15.9936 12.6818 19.9677 12.6818 24.8699C12.6818 29.7722 16.6559 33.7462 21.5581 33.7462C22.8175 33.7462 24.0155 33.484 25.1007 33.0111C25.4153 32.8741 25.7849 32.9236 26.0338 33.1597L32.8774 39.6519C33.0096 39.7774 32.9208 40 32.7385 40H6.3272C6.10437 40 5.92373 39.8194 5.92373 39.5965V20.3309C5.92373 20.1081 5.74309 19.9274 5.52026 19.9274H0.404281C0.0363547 19.9274 -0.139581 19.4753 0.131585 19.2266Z" fill="#2E62FF"/>
<path d="M21.3838 29.655C24.0578 29.655 26.2255 27.4873 26.2255 24.8133C26.2255 22.1394 24.0578 19.9717 21.3838 19.9717C18.7099 19.9717 16.5422 22.1394 16.5422 24.8133C16.5422 27.4873 18.7099 29.655 21.3838 29.655Z" fill="#2E62FF"/>
</svg>
