<svg width="230" height="53" viewBox="0 0 230 53" fill="none" xmlns="http://www.w3.org/2000/svg">
<path d="M226.636 12.1624C228.492 12.1624 229.997 10.6576 229.997 8.80137C229.997 6.94516 228.492 5.44043 226.636 5.44043C224.779 5.44043 223.275 6.94516 223.275 8.80137C223.275 10.6576 224.779 12.1624 226.636 12.1624Z" fill="#2E62FF"/>
<path d="M52.5079 39L47.1322 29.6189H45.762V39H39.7539V14.1595H50.0133C51.9809 14.1595 53.6439 14.4992 55.0025 15.1784C56.361 15.8577 57.38 16.7947 58.0592 17.9892C58.7385 19.1604 59.0781 20.5073 59.0781 22.0298C59.0781 23.8334 58.5745 25.3676 57.5673 26.6325C56.5836 27.8973 55.143 28.764 53.2457 29.2325L59.1484 39H52.5079ZM45.762 25.5081H49.4863C50.6809 25.5081 51.5592 25.2505 52.1214 24.7352C52.6836 24.1964 52.9647 23.4118 52.9647 22.3811C52.9647 21.3973 52.6719 20.6244 52.0863 20.0622C51.5241 19.5001 50.6575 19.219 49.4863 19.219H45.762V25.5081ZM80.7123 28.6703C80.7123 29.1622 80.6537 29.7009 80.5366 30.2865H66.9393C67.0096 31.7622 67.3844 32.8279 68.0637 33.4838C68.7429 34.1162 69.6096 34.4324 70.6637 34.4324C71.5537 34.4324 72.2916 34.2099 72.8772 33.7649C73.4627 33.3198 73.8492 32.746 74.0366 32.0433H80.3961C80.1384 33.4252 79.5762 34.6667 78.7096 35.7676C77.8429 36.8451 76.742 37.7 75.4069 38.3324C74.0718 38.9414 72.5844 39.2459 70.9447 39.2459C69.024 39.2459 67.3141 38.8477 65.815 38.0514C64.3393 37.2315 63.1799 36.0604 62.3366 34.5378C61.4934 33.0153 61.0718 31.2352 61.0718 29.1973C61.0718 27.1361 61.4817 25.3559 62.3015 23.8568C63.1448 22.3343 64.3159 21.1748 65.815 20.3784C67.3141 19.5586 69.024 19.1487 70.9447 19.1487C72.8889 19.1487 74.5988 19.5469 76.0745 20.3433C77.5501 21.1397 78.6862 22.264 79.4825 23.7163C80.3024 25.1451 80.7123 26.7964 80.7123 28.6703ZM74.6339 27.7568C74.6573 26.4685 74.306 25.5081 73.5799 24.8757C72.8772 24.2199 71.9988 23.8919 70.9447 23.8919C69.8438 23.8919 68.9303 24.2199 68.2042 24.8757C67.4781 25.5316 67.0682 26.4919 66.9745 27.7568H74.6339ZM96.282 19.1838C98.5307 19.1838 100.311 19.9334 101.623 21.4325C102.958 22.9316 103.625 24.9928 103.625 27.6162V39H97.6172V28.3189C97.6172 27.0072 97.2658 25.9883 96.5631 25.2622C95.8838 24.5127 94.9703 24.1379 93.8226 24.1379C92.6046 24.1379 91.6325 24.5244 90.9064 25.2973C90.2037 26.0703 89.8523 27.1712 89.8523 28.6V39H83.8442V19.3946H89.8523V22.9784C90.4145 21.8073 91.246 20.882 92.3469 20.2028C93.4712 19.5235 94.7829 19.1838 96.282 19.1838ZM118.691 33.8351V39H115.985C113.69 39 111.898 38.4378 110.609 37.3135C109.345 36.1658 108.712 34.2802 108.712 31.6568V24.4541H106.077V19.3946H108.712V14.5811H114.72V19.3946H118.655V24.4541H114.72V31.7622C114.72 32.5352 114.873 33.0739 115.177 33.3784C115.505 33.6829 116.044 33.8351 116.793 33.8351H118.691ZM130.921 19.1487C133.451 19.1487 135.571 19.8514 137.281 21.2568C138.991 22.6388 140.068 24.5478 140.513 26.9838H134.154C133.966 26.1406 133.58 25.4847 132.994 25.0163C132.409 24.5478 131.671 24.3136 130.781 24.3136C129.727 24.3136 128.86 24.7352 128.181 25.5784C127.502 26.3982 127.162 27.6045 127.162 29.1973C127.162 30.7901 127.502 32.0081 128.181 32.8514C128.86 33.6712 129.727 34.0811 130.781 34.0811C131.671 34.0811 132.409 33.8469 132.994 33.3784C133.58 32.9099 133.966 32.2541 134.154 31.4108H140.513C140.068 33.8469 138.991 35.7676 137.281 37.173C135.571 38.555 133.451 39.2459 130.921 39.2459C129.001 39.2459 127.291 38.8477 125.792 38.0514C124.316 37.2315 123.157 36.0604 122.313 34.5378C121.47 33.0153 121.048 31.2352 121.048 29.1973C121.048 27.1361 121.458 25.3559 122.278 23.8568C123.121 22.3343 124.293 21.1748 125.792 20.3784C127.291 19.5586 129.001 19.1487 130.921 19.1487ZM149.657 23.0838C150.407 21.8892 151.367 20.9406 152.538 20.2379C153.733 19.5352 155.021 19.1838 156.403 19.1838V25.6135H154.682C153.089 25.6135 151.847 25.9532 150.957 26.6325C150.091 27.3117 149.657 28.4595 149.657 30.0757V39H143.649V19.3946H149.657V23.0838ZM177.54 28.6703C177.54 29.1622 177.481 29.7009 177.364 30.2865H163.767C163.837 31.7622 164.212 32.8279 164.891 33.4838C165.57 34.1162 166.437 34.4324 167.491 34.4324C168.381 34.4324 169.119 34.2099 169.704 33.7649C170.29 33.3198 170.676 32.746 170.864 32.0433H177.223C176.966 33.4252 176.403 34.6667 175.537 35.7676C174.67 36.8451 173.569 37.7 172.234 38.3324C170.899 38.9414 169.412 39.2459 167.772 39.2459C165.851 39.2459 164.141 38.8477 162.642 38.0514C161.167 37.2315 160.007 36.0604 159.164 34.5378C158.321 33.0153 157.899 31.2352 157.899 29.1973C157.899 27.1361 158.309 25.3559 159.129 23.8568C159.972 22.3343 161.143 21.1748 162.642 20.3784C164.141 19.5586 165.851 19.1487 167.772 19.1487C169.716 19.1487 171.426 19.5469 172.902 20.3433C174.377 21.1397 175.513 22.264 176.31 23.7163C177.13 25.1451 177.54 26.7964 177.54 28.6703ZM171.461 27.7568C171.485 26.4685 171.133 25.5081 170.407 24.8757C169.704 24.2199 168.826 23.8919 167.772 23.8919C166.671 23.8919 165.758 24.2199 165.031 24.8757C164.305 25.5316 163.895 26.4919 163.802 27.7568H171.461ZM199.293 28.6703C199.293 29.1622 199.234 29.7009 199.117 30.2865H185.52C185.59 31.7622 185.965 32.8279 186.644 33.4838C187.324 34.1162 188.19 34.4324 189.244 34.4324C190.135 34.4324 190.872 34.2099 191.458 33.7649C192.044 33.3198 192.43 32.746 192.617 32.0433H198.977C198.719 33.4252 198.157 34.6667 197.29 35.7676C196.424 36.8451 195.323 37.7 193.988 38.3324C192.653 38.9414 191.165 39.2459 189.525 39.2459C187.605 39.2459 185.895 38.8477 184.396 38.0514C182.92 37.2315 181.761 36.0604 180.917 34.5378C180.074 33.0153 179.653 31.2352 179.653 29.1973C179.653 27.1361 180.062 25.3559 180.882 23.8568C181.726 22.3343 182.897 21.1748 184.396 20.3784C185.895 19.5586 187.605 19.1487 189.525 19.1487C191.47 19.1487 193.18 19.5469 194.655 20.3433C196.131 21.1397 197.267 22.264 198.063 23.7163C198.883 25.1451 199.293 26.7964 199.293 28.6703ZM193.215 27.7568C193.238 26.4685 192.887 25.5081 192.161 24.8757C191.458 24.2199 190.58 23.8919 189.525 23.8919C188.425 23.8919 187.511 24.2199 186.785 24.8757C186.059 25.5316 185.649 26.4919 185.555 27.7568H193.215ZM214.652 19.1487C216.268 19.1487 217.709 19.5586 218.974 20.3784C220.262 21.1748 221.269 22.3343 221.995 23.8568C222.745 25.3559 223.12 27.1361 223.12 29.1973C223.12 31.2352 222.745 33.0153 221.995 34.5378C221.269 36.0604 220.262 37.2315 218.974 38.0514C217.709 38.8477 216.268 39.2459 214.652 39.2459C213.153 39.2459 211.865 38.9063 210.787 38.227C209.71 37.5478 208.925 36.6225 208.433 35.4514V39H202.425V13.0001H208.433V22.9433C208.925 21.7721 209.71 20.8469 210.787 20.1676C211.865 19.4883 213.153 19.1487 214.652 19.1487ZM212.72 24.419C211.455 24.419 210.412 24.8523 209.593 25.719C208.796 26.5622 208.398 27.7217 208.398 29.1973C208.398 30.6496 208.796 31.809 209.593 32.6757C210.412 33.5424 211.455 33.9757 212.72 33.9757C214.008 33.9757 215.038 33.5541 215.811 32.7108C216.608 31.8676 217.006 30.6964 217.006 29.1973C217.006 27.6982 216.608 26.5271 215.811 25.6838C215.038 24.8406 214.008 24.419 212.72 24.419Z" fill="#FEFEFE"/>
<path fill-rule="evenodd" clip-rule="evenodd" d="M0 7.59644H6.78431V22.0464H0V7.59644ZM6.78431 29.3097V36.9561H0V22.0464L6.78431 29.3097Z" fill="#2E62FF"/>
<path fill-rule="evenodd" clip-rule="evenodd" d="M22.3401 7.59448L29.1234 14.4009V22.1346H22.3401V7.59448Z" fill="#2E62FF"/>
<path fill-rule="evenodd" clip-rule="evenodd" d="M0 14.3807V7.59644H22.3421L29.1034 14.3807H0Z" fill="#2E62FF"/>
<path fill-rule="evenodd" clip-rule="evenodd" d="M29.3598 36.9561V30.1718L22.3556 30.2227L14.9252 22.126L6.78442 21.9446V25.511L18.2392 36.9551L29.3598 36.9561Z" fill="#2E62FF"/>
</svg>
